<svg width="400" height="334" viewBox="0 0 400 334" fill="none" xmlns="http://www.w3.org/2000/svg">
<g filter="url(#filter0_d_1383_2)">
<rect x="8" y="8" width="384" height="318" rx="4" fill="#222330"/>
</g>
<path d="M44.48 40.04L39.76 49.14V54H36.96V49.14L32.22 40.04H35.38L38.38 46.42L41.36 40.04H44.48ZM51.0148 54.18C49.9482 54.18 48.9882 53.9467 48.1348 53.48C47.2815 53 46.6082 52.3267 46.1148 51.46C45.6348 50.5933 45.3948 49.5933 45.3948 48.46C45.3948 47.3267 45.6415 46.3267 46.1348 45.46C46.6415 44.5933 47.3282 43.9267 48.1948 43.46C49.0615 42.98 50.0282 42.74 51.0948 42.74C52.1615 42.74 53.1282 42.98 53.9948 43.46C54.8615 43.9267 55.5415 44.5933 56.0348 45.46C56.5415 46.3267 56.7948 47.3267 56.7948 48.46C56.7948 49.5933 56.5348 50.5933 56.0148 51.46C55.5082 52.3267 54.8148 53 53.9348 53.48C53.0682 53.9467 52.0948 54.18 51.0148 54.18ZM51.0148 51.74C51.5215 51.74 51.9948 51.62 52.4348 51.38C52.8882 51.1267 53.2482 50.7533 53.5148 50.26C53.7815 49.7667 53.9148 49.1667 53.9148 48.46C53.9148 47.4067 53.6348 46.6 53.0748 46.04C52.5282 45.4667 51.8548 45.18 51.0548 45.18C50.2548 45.18 49.5815 45.4667 49.0348 46.04C48.5015 46.6 48.2348 47.4067 48.2348 48.46C48.2348 49.5133 48.4948 50.3267 49.0148 50.9C49.5482 51.46 50.2148 51.74 51.0148 51.74ZM69.3088 42.92V54H66.4888V52.6C66.1288 53.08 65.6554 53.46 65.0688 53.74C64.4954 54.0067 63.8688 54.14 63.1888 54.14C62.3221 54.14 61.5554 53.96 60.8888 53.6C60.2221 53.2267 59.6954 52.6867 59.3088 51.98C58.9354 51.26 58.7488 50.4067 58.7488 49.42V42.92H61.5488V49.02C61.5488 49.9 61.7688 50.58 62.2088 51.06C62.6488 51.5267 63.2488 51.76 64.0088 51.76C64.7821 51.76 65.3888 51.5267 65.8288 51.06C66.2688 50.58 66.4888 49.9 66.4888 49.02V42.92H69.3088ZM74.8714 44.64C75.2314 44.0533 75.6981 43.5933 76.2714 43.26C76.8581 42.9267 77.5247 42.76 78.2714 42.76V45.7H77.5314C76.6514 45.7 75.9847 45.9067 75.5314 46.32C75.0914 46.7333 74.8714 47.4533 74.8714 48.48V54H72.0714V42.92H74.8714V44.64ZM87.723 51.78H92.323V54H84.923V40.04H87.723V51.78ZM95.5227 41.6C95.0293 41.6 94.616 41.4467 94.2827 41.14C93.9627 40.82 93.8027 40.4267 93.8027 39.96C93.8027 39.4933 93.9627 39.1067 94.2827 38.8C94.616 38.48 95.0293 38.32 95.5227 38.32C96.016 38.32 96.4227 38.48 96.7427 38.8C97.076 39.1067 97.2427 39.4933 97.2427 39.96C97.2427 40.4267 97.076 40.82 96.7427 41.14C96.4227 41.4467 96.016 41.6 95.5227 41.6ZM96.9027 42.92V54H94.1027V42.92H96.9027ZM103.909 54.18C103.002 54.18 102.189 54.02 101.469 53.7C100.749 53.3667 100.176 52.92 99.7491 52.36C99.3357 51.8 99.1091 51.18 99.0691 50.5H101.889C101.942 50.9267 102.149 51.28 102.509 51.56C102.882 51.84 103.342 51.98 103.889 51.98C104.422 51.98 104.836 51.8733 105.129 51.66C105.436 51.4467 105.589 51.1733 105.589 50.84C105.589 50.48 105.402 50.2133 105.029 50.04C104.669 49.8533 104.089 49.6533 103.289 49.44C102.462 49.24 101.782 49.0333 101.249 48.82C100.729 48.6067 100.276 48.28 99.8891 47.84C99.5157 47.4 99.3291 46.8067 99.3291 46.06C99.3291 45.4467 99.5024 44.8867 99.8491 44.38C100.209 43.8733 100.716 43.4733 101.369 43.18C102.036 42.8867 102.816 42.74 103.709 42.74C105.029 42.74 106.082 43.0733 106.869 43.74C107.656 44.3933 108.089 45.28 108.169 46.4H105.489C105.449 45.96 105.262 45.6133 104.929 45.36C104.609 45.0933 104.176 44.96 103.629 44.96C103.122 44.96 102.729 45.0533 102.449 45.24C102.182 45.4267 102.049 45.6867 102.049 46.02C102.049 46.3933 102.236 46.68 102.609 46.88C102.982 47.0667 103.562 47.26 104.349 47.46C105.149 47.66 105.809 47.8667 106.329 48.08C106.849 48.2933 107.296 48.6267 107.669 49.08C108.056 49.52 108.256 50.1067 108.269 50.84C108.269 51.48 108.089 52.0533 107.729 52.56C107.382 53.0667 106.876 53.4667 106.209 53.76C105.556 54.04 104.789 54.18 103.909 54.18ZM113.828 45.22V50.58C113.828 50.9533 113.914 51.2267 114.088 51.4C114.274 51.56 114.581 51.64 115.008 51.64H116.308V54H114.548C112.188 54 111.008 52.8533 111.008 50.56V45.22H109.688V42.92H111.008V40.18H113.828V42.92H116.308V45.22H113.828ZM122.561 54.18C121.655 54.18 120.841 54.02 120.121 53.7C119.401 53.3667 118.828 52.92 118.401 52.36C117.988 51.8 117.761 51.18 117.721 50.5H120.541C120.595 50.9267 120.801 51.28 121.161 51.56C121.535 51.84 121.995 51.98 122.541 51.98C123.075 51.98 123.488 51.8733 123.781 51.66C124.088 51.4467 124.241 51.1733 124.241 50.84C124.241 50.48 124.055 50.2133 123.681 50.04C123.321 49.8533 122.741 49.6533 121.941 49.44C121.115 49.24 120.435 49.0333 119.901 48.82C119.381 48.6067 118.928 48.28 118.541 47.84C118.168 47.4 117.981 46.8067 117.981 46.06C117.981 45.4467 118.155 44.8867 118.501 44.38C118.861 43.8733 119.368 43.4733 120.021 43.18C120.688 42.8867 121.468 42.74 122.361 42.74C123.681 42.74 124.735 43.0733 125.521 43.74C126.308 44.3933 126.741 45.28 126.821 46.4H124.141C124.101 45.96 123.915 45.6133 123.581 45.36C123.261 45.0933 122.828 44.96 122.281 44.96C121.775 44.96 121.381 45.0533 121.101 45.24C120.835 45.4267 120.701 45.6867 120.701 46.02C120.701 46.3933 120.888 46.68 121.261 46.88C121.635 47.0667 122.215 47.26 123.001 47.46C123.801 47.66 124.461 47.8667 124.981 48.08C125.501 48.2933 125.948 48.6267 126.321 49.08C126.708 49.52 126.908 50.1067 126.921 50.84C126.921 51.48 126.741 52.0533 126.381 52.56C126.035 53.0667 125.528 53.4667 124.861 53.76C124.208 54.04 123.441 54.18 122.561 54.18Z" fill="white"/>
<rect x="9" y="86" width="383" height="48" fill="#0097E8"/>
<rect x="32.5" y="254.5" width="335" height="47" rx="3.5" fill="#222330" stroke="#7F8190" stroke-dasharray="5 5"/>
<path d="M40.536 104.848V106.032H35.688V109.792H39.624V110.976H35.688V116H34.232V104.848H40.536ZM43.7505 108.656C44.0065 108.155 44.3692 107.765 44.8385 107.488C45.3185 107.211 45.8998 107.072 46.5825 107.072V108.576H46.1985C44.5665 108.576 43.7505 109.461 43.7505 111.232V116H42.2945V107.232H43.7505V108.656ZM52.0873 116.144C51.2659 116.144 50.5193 115.957 49.8473 115.584C49.1859 115.211 48.6633 114.683 48.2793 114C47.9059 113.307 47.7193 112.507 47.7193 111.6C47.7193 110.704 47.9113 109.915 48.2953 109.232C48.6899 108.539 49.2233 108.011 49.8953 107.648C50.5673 107.275 51.3193 107.088 52.1513 107.088C52.9833 107.088 53.7353 107.275 54.4073 107.648C55.0793 108.011 55.6073 108.533 55.9913 109.216C56.3859 109.899 56.5833 110.693 56.5833 111.6C56.5833 112.507 56.3806 113.307 55.9753 114C55.5806 114.683 55.0419 115.211 54.3593 115.584C53.6766 115.957 52.9193 116.144 52.0873 116.144ZM52.0873 114.864C52.6099 114.864 53.1006 114.741 53.5593 114.496C54.0179 114.251 54.3859 113.883 54.6633 113.392C54.9513 112.901 55.0953 112.304 55.0953 111.6C55.0953 110.896 54.9566 110.299 54.6793 109.808C54.4019 109.317 54.0393 108.955 53.5913 108.72C53.1433 108.475 52.6579 108.352 52.1353 108.352C51.6019 108.352 51.1113 108.475 50.6633 108.72C50.2259 108.955 49.8739 109.317 49.6073 109.808C49.3406 110.299 49.2073 110.896 49.2073 111.6C49.2073 112.315 49.3353 112.917 49.5913 113.408C49.8579 113.899 50.2099 114.267 50.6473 114.512C51.0846 114.747 51.5646 114.864 52.0873 114.864ZM62.7696 107.072C63.8363 107.072 64.7003 107.397 65.3616 108.048C66.023 108.688 66.3536 109.616 66.3536 110.832V116H64.9136V111.04C64.9136 110.165 64.695 109.499 64.2576 109.04C63.8203 108.571 63.223 108.336 62.4656 108.336C61.6976 108.336 61.0843 108.576 60.6256 109.056C60.1776 109.536 59.9536 110.235 59.9536 111.152V116H58.4976V107.232H59.9536V108.48C60.2416 108.032 60.631 107.685 61.1216 107.44C61.623 107.195 62.1723 107.072 62.7696 107.072ZM70.508 108.432V113.6C70.508 114.027 70.5987 114.331 70.78 114.512C70.9613 114.683 71.276 114.768 71.724 114.768H72.796V116H71.484C70.6733 116 70.0653 115.813 69.66 115.44C69.2547 115.067 69.052 114.453 69.052 113.6V108.432H67.916V107.232H69.052V105.024H70.508V107.232H72.796V108.432H70.508ZM82.5601 111.28C82.5601 111.557 82.5441 111.851 82.5121 112.16H75.5041C75.5575 113.024 75.8508 113.701 76.3841 114.192C76.9281 114.672 77.5841 114.912 78.3521 114.912C78.9815 114.912 79.5041 114.768 79.9201 114.48C80.3468 114.181 80.6455 113.787 80.8161 113.296H82.3841C82.1495 114.139 81.6801 114.827 80.9761 115.36C80.2721 115.883 79.3975 116.144 78.3521 116.144C77.5201 116.144 76.7735 115.957 76.1121 115.584C75.4615 115.211 74.9495 114.683 74.5761 114C74.2028 113.307 74.0161 112.507 74.0161 111.6C74.0161 110.693 74.1975 109.899 74.5601 109.216C74.9228 108.533 75.4295 108.011 76.0801 107.648C76.7415 107.275 77.4988 107.088 78.3521 107.088C79.1841 107.088 79.9201 107.269 80.5601 107.632C81.2001 107.995 81.6908 108.496 82.0321 109.136C82.3841 109.765 82.5601 110.48 82.5601 111.28ZM81.0561 110.976C81.0561 110.421 80.9335 109.947 80.6881 109.552C80.4428 109.147 80.1068 108.843 79.6801 108.64C79.2641 108.427 78.8001 108.32 78.2881 108.32C77.5521 108.32 76.9228 108.555 76.4001 109.024C75.8881 109.493 75.5948 110.144 75.5201 110.976H81.0561ZM88.754 107.072C89.8207 107.072 90.6847 107.397 91.346 108.048C92.0073 108.688 92.338 109.616 92.338 110.832V116H90.898V111.04C90.898 110.165 90.6793 109.499 90.242 109.04C89.8047 108.571 89.2073 108.336 88.45 108.336C87.682 108.336 87.0687 108.576 86.61 109.056C86.162 109.536 85.938 110.235 85.938 111.152V116H84.482V107.232H85.938V108.48C86.226 108.032 86.6153 107.685 87.106 107.44C87.6073 107.195 88.1567 107.072 88.754 107.072ZM94.1724 111.584C94.1724 110.688 94.3537 109.904 94.7164 109.232C95.079 108.549 95.575 108.021 96.2044 107.648C96.8444 107.275 97.559 107.088 98.3484 107.088C99.031 107.088 99.6657 107.248 100.252 107.568C100.839 107.877 101.287 108.288 101.596 108.8V104.16H103.068V116H101.596V114.352C101.308 114.875 100.882 115.307 100.316 115.648C99.751 115.979 99.0897 116.144 98.3324 116.144C97.5537 116.144 96.8444 115.952 96.2044 115.568C95.575 115.184 95.079 114.645 94.7164 113.952C94.3537 113.259 94.1724 112.469 94.1724 111.584ZM101.596 111.6C101.596 110.939 101.463 110.363 101.196 109.872C100.93 109.381 100.567 109.008 100.108 108.752C99.6604 108.485 99.1644 108.352 98.6204 108.352C98.0764 108.352 97.5804 108.48 97.1324 108.736C96.6844 108.992 96.327 109.365 96.0604 109.856C95.7937 110.347 95.6604 110.923 95.6604 111.584C95.6604 112.256 95.7937 112.843 96.0604 113.344C96.327 113.835 96.6844 114.213 97.1324 114.48C97.5804 114.736 98.0764 114.864 98.6204 114.864C99.1644 114.864 99.6604 114.736 100.108 114.48C100.567 114.213 100.93 113.835 101.196 113.344C101.463 112.843 101.596 112.261 101.596 111.6Z" fill="white"/>
<path d="M41.816 158.256C42.2213 158.32 42.5893 158.485 42.92 158.752C43.2613 159.019 43.528 159.349 43.72 159.744C43.9227 160.139 44.024 160.56 44.024 161.008C44.024 161.573 43.88 162.085 43.592 162.544C43.304 162.992 42.8827 163.349 42.328 163.616C41.784 163.872 41.1387 164 40.392 164H36.232V152.848H40.232C40.9893 152.848 41.6347 152.976 42.168 153.232C42.7013 153.477 43.1013 153.813 43.368 154.24C43.6347 154.667 43.768 155.147 43.768 155.68C43.768 156.341 43.5867 156.891 43.224 157.328C42.872 157.755 42.4027 158.064 41.816 158.256ZM37.688 157.664H40.136C40.8187 157.664 41.3467 157.504 41.72 157.184C42.0933 156.864 42.28 156.421 42.28 155.856C42.28 155.291 42.0933 154.848 41.72 154.528C41.3467 154.208 40.808 154.048 40.104 154.048H37.688V157.664ZM40.264 162.8C40.9893 162.8 41.5547 162.629 41.96 162.288C42.3653 161.947 42.568 161.472 42.568 160.864C42.568 160.245 42.3547 159.76 41.928 159.408C41.5013 159.045 40.9307 158.864 40.216 158.864H37.688V162.8H40.264ZM45.5005 159.584C45.5005 158.688 45.6818 157.904 46.0445 157.232C46.4072 156.549 46.9032 156.021 47.5325 155.648C48.1725 155.275 48.8818 155.088 49.6605 155.088C50.4285 155.088 51.0952 155.253 51.6605 155.584C52.2258 155.915 52.6472 156.331 52.9245 156.832V155.232H54.3965V164H52.9245V162.368C52.6365 162.88 52.2045 163.307 51.6285 163.648C51.0632 163.979 50.4018 164.144 49.6445 164.144C48.8658 164.144 48.1618 163.952 47.5325 163.568C46.9032 163.184 46.4072 162.645 46.0445 161.952C45.6818 161.259 45.5005 160.469 45.5005 159.584ZM52.9245 159.6C52.9245 158.939 52.7912 158.363 52.5245 157.872C52.2578 157.381 51.8952 157.008 51.4365 156.752C50.9885 156.485 50.4925 156.352 49.9485 156.352C49.4045 156.352 48.9085 156.48 48.4605 156.736C48.0125 156.992 47.6552 157.365 47.3885 157.856C47.1218 158.347 46.9885 158.923 46.9885 159.584C46.9885 160.256 47.1218 160.843 47.3885 161.344C47.6552 161.835 48.0125 162.213 48.4605 162.48C48.9085 162.736 49.4045 162.864 49.9485 162.864C50.4925 162.864 50.9885 162.736 51.4365 162.48C51.8952 162.213 52.2578 161.835 52.5245 161.344C52.7912 160.843 52.9245 160.261 52.9245 159.6ZM56.313 159.6C56.313 158.693 56.4943 157.904 56.857 157.232C57.2197 156.549 57.721 156.021 58.361 155.648C59.0117 155.275 59.753 155.088 60.585 155.088C61.6623 155.088 62.5477 155.349 63.241 155.872C63.945 156.395 64.409 157.12 64.633 158.048H63.065C62.9157 157.515 62.6223 157.093 62.185 156.784C61.7583 156.475 61.225 156.32 60.585 156.32C59.753 156.32 59.081 156.608 58.569 157.184C58.057 157.749 57.801 158.555 57.801 159.6C57.801 160.656 58.057 161.472 58.569 162.048C59.081 162.624 59.753 162.912 60.585 162.912C61.225 162.912 61.7583 162.763 62.185 162.464C62.6117 162.165 62.905 161.739 63.065 161.184H64.633C64.3983 162.08 63.929 162.8 63.225 163.344C62.521 163.877 61.641 164.144 60.585 164.144C59.753 164.144 59.0117 163.957 58.361 163.584C57.721 163.211 57.2197 162.683 56.857 162C56.4943 161.317 56.313 160.517 56.313 159.6ZM71.4718 164L68.0318 160.128V164H66.5758V152.16H68.0318V159.12L71.4078 155.232H73.4398L69.3118 159.6L73.4558 164H71.4718ZM82.8101 159.28C82.8101 159.557 82.7941 159.851 82.7621 160.16H75.7541C75.8075 161.024 76.1008 161.701 76.6341 162.192C77.1781 162.672 77.8341 162.912 78.6021 162.912C79.2315 162.912 79.7541 162.768 80.1701 162.48C80.5968 162.181 80.8955 161.787 81.0661 161.296H82.6341C82.3995 162.139 81.9301 162.827 81.2261 163.36C80.5221 163.883 79.6475 164.144 78.6021 164.144C77.7701 164.144 77.0235 163.957 76.3621 163.584C75.7115 163.211 75.1995 162.683 74.8261 162C74.4528 161.307 74.2661 160.507 74.2661 159.6C74.2661 158.693 74.4475 157.899 74.8101 157.216C75.1728 156.533 75.6795 156.011 76.3301 155.648C76.9915 155.275 77.7488 155.088 78.6021 155.088C79.4341 155.088 80.1701 155.269 80.8101 155.632C81.4501 155.995 81.9408 156.496 82.2821 157.136C82.6341 157.765 82.8101 158.48 82.8101 159.28ZM81.3061 158.976C81.3061 158.421 81.1835 157.947 80.9381 157.552C80.6928 157.147 80.3568 156.843 79.9301 156.64C79.5141 156.427 79.0501 156.32 78.5381 156.32C77.8021 156.32 77.1728 156.555 76.6501 157.024C76.1381 157.493 75.8448 158.144 75.7701 158.976H81.3061ZM89.004 155.072C90.0707 155.072 90.9347 155.397 91.596 156.048C92.2573 156.688 92.588 157.616 92.588 158.832V164H91.148V159.04C91.148 158.165 90.9293 157.499 90.492 157.04C90.0547 156.571 89.4573 156.336 88.7 156.336C87.932 156.336 87.3187 156.576 86.86 157.056C86.412 157.536 86.188 158.235 86.188 159.152V164H84.732V155.232H86.188V156.48C86.476 156.032 86.8653 155.685 87.356 155.44C87.8573 155.195 88.4067 155.072 89.004 155.072ZM94.4224 159.584C94.4224 158.688 94.6037 157.904 94.9664 157.232C95.329 156.549 95.825 156.021 96.4544 155.648C97.0944 155.275 97.809 155.088 98.5984 155.088C99.281 155.088 99.9157 155.248 100.502 155.568C101.089 155.877 101.537 156.288 101.846 156.8V152.16H103.318V164H101.846V162.352C101.558 162.875 101.132 163.307 100.566 163.648C100.001 163.979 99.3397 164.144 98.5824 164.144C97.8037 164.144 97.0944 163.952 96.4544 163.568C95.825 163.184 95.329 162.645 94.9664 161.952C94.6037 161.259 94.4224 160.469 94.4224 159.584ZM101.846 159.6C101.846 158.939 101.713 158.363 101.446 157.872C101.18 157.381 100.817 157.008 100.358 156.752C99.9104 156.485 99.4144 156.352 98.8704 156.352C98.3264 156.352 97.8304 156.48 97.3824 156.736C96.9344 156.992 96.577 157.365 96.3104 157.856C96.0437 158.347 95.9104 158.923 95.9104 159.584C95.9104 160.256 96.0437 160.843 96.3104 161.344C96.577 161.835 96.9344 162.213 97.3824 162.48C97.8304 162.736 98.3264 162.864 98.8704 162.864C99.4144 162.864 99.9104 162.736 100.358 162.48C100.817 162.213 101.18 161.835 101.446 161.344C101.713 160.843 101.846 160.261 101.846 159.6Z" fill="white"/>
<path d="M39.704 200.848C40.92 200.848 41.9707 201.077 42.856 201.536C43.752 201.984 44.4347 202.629 44.904 203.472C45.384 204.315 45.624 205.307 45.624 206.448C45.624 207.589 45.384 208.581 44.904 209.424C44.4347 210.256 43.752 210.896 42.856 211.344C41.9707 211.781 40.92 212 39.704 212H36.232V200.848H39.704ZM39.704 210.8C41.144 210.8 42.2427 210.421 43 209.664C43.7573 208.896 44.136 207.824 44.136 206.448C44.136 205.061 43.752 203.979 42.984 203.2C42.2267 202.421 41.1333 202.032 39.704 202.032H37.688V210.8H39.704ZM55.5445 207.28C55.5445 207.557 55.5285 207.851 55.4965 208.16H48.4885C48.5418 209.024 48.8352 209.701 49.3685 210.192C49.9125 210.672 50.5685 210.912 51.3365 210.912C51.9658 210.912 52.4885 210.768 52.9045 210.48C53.3312 210.181 53.6298 209.787 53.8005 209.296H55.3685C55.1338 210.139 54.6645 210.827 53.9605 211.36C53.2565 211.883 52.3818 212.144 51.3365 212.144C50.5045 212.144 49.7578 211.957 49.0965 211.584C48.4458 211.211 47.9338 210.683 47.5605 210C47.1872 209.307 47.0005 208.507 47.0005 207.6C47.0005 206.693 47.1818 205.899 47.5445 205.216C47.9072 204.533 48.4138 204.011 49.0645 203.648C49.7258 203.275 50.4832 203.088 51.3365 203.088C52.1685 203.088 52.9045 203.269 53.5445 203.632C54.1845 203.995 54.6752 204.496 55.0165 205.136C55.3685 205.765 55.5445 206.48 55.5445 207.28ZM54.0405 206.976C54.0405 206.421 53.9178 205.947 53.6725 205.552C53.4272 205.147 53.0912 204.843 52.6645 204.64C52.2485 204.427 51.7845 204.32 51.2725 204.32C50.5365 204.32 49.9072 204.555 49.3845 205.024C48.8725 205.493 48.5792 206.144 48.5045 206.976H54.0405ZM60.7304 210.656L63.4504 203.232H65.0024L61.5624 212H59.8664L56.4264 203.232H57.9944L60.7304 210.656ZM71.4911 212.112C70.4565 212.112 69.5125 211.872 68.6591 211.392C67.8058 210.901 67.1285 210.224 66.6271 209.36C66.1365 208.485 65.8911 207.504 65.8911 206.416C65.8911 205.328 66.1365 204.352 66.6271 203.488C67.1285 202.613 67.8058 201.936 68.6591 201.456C69.5125 200.965 70.4565 200.72 71.4911 200.72C72.5365 200.72 73.4858 200.965 74.3391 201.456C75.1925 201.936 75.8645 202.608 76.3551 203.472C76.8458 204.336 77.0911 205.317 77.0911 206.416C77.0911 207.515 76.8458 208.496 76.3551 209.36C75.8645 210.224 75.1925 210.901 74.3391 211.392C73.4858 211.872 72.5365 212.112 71.4911 212.112ZM71.4911 210.848C72.2698 210.848 72.9685 210.667 73.5871 210.304C74.2165 209.941 74.7071 209.424 75.0591 208.752C75.4218 208.08 75.6031 207.301 75.6031 206.416C75.6031 205.52 75.4218 204.741 75.0591 204.08C74.7071 203.408 74.2218 202.891 73.6031 202.528C72.9845 202.165 72.2805 201.984 71.4911 201.984C70.7018 201.984 69.9978 202.165 69.3791 202.528C68.7605 202.891 68.2698 203.408 67.9071 204.08C67.5551 204.741 67.3791 205.52 67.3791 206.416C67.3791 207.301 67.5551 208.08 67.9071 208.752C68.2698 209.424 68.7605 209.941 69.3791 210.304C70.0085 210.667 70.7125 210.848 71.4911 210.848ZM80.4693 204.848C80.7573 204.347 81.1839 203.931 81.7493 203.6C82.3253 203.259 82.9919 203.088 83.7493 203.088C84.5279 203.088 85.2319 203.275 85.8612 203.648C86.5012 204.021 87.0026 204.549 87.3653 205.232C87.7279 205.904 87.9093 206.688 87.9093 207.584C87.9093 208.469 87.7279 209.259 87.3653 209.952C87.0026 210.645 86.5012 211.184 85.8612 211.568C85.2319 211.952 84.5279 212.144 83.7493 212.144C83.0026 212.144 82.3413 211.979 81.7653 211.648C81.1999 211.307 80.7679 210.885 80.4693 210.384V216.16H79.0133V203.232H80.4693V204.848ZM86.4213 207.584C86.4213 206.923 86.2879 206.347 86.0213 205.856C85.7546 205.365 85.3919 204.992 84.9333 204.736C84.4853 204.48 83.9893 204.352 83.4453 204.352C82.9119 204.352 82.4159 204.485 81.9573 204.752C81.5093 205.008 81.1466 205.387 80.8693 205.888C80.6026 206.379 80.4693 206.949 80.4693 207.6C80.4693 208.261 80.6026 208.843 80.8693 209.344C81.1466 209.835 81.5093 210.213 81.9573 210.48C82.4159 210.736 82.9119 210.864 83.4453 210.864C83.9893 210.864 84.4853 210.736 84.9333 210.48C85.3919 210.213 85.7546 209.835 86.0213 209.344C86.2879 208.843 86.4213 208.256 86.4213 207.584ZM92.9298 212.144C92.2578 212.144 91.6551 212.032 91.1218 211.808C90.5884 211.573 90.1671 211.253 89.8578 210.848C89.5484 210.432 89.3778 209.957 89.3458 209.424H90.8498C90.8924 209.861 91.0951 210.219 91.4578 210.496C91.8311 210.773 92.3164 210.912 92.9138 210.912C93.4684 210.912 93.9058 210.789 94.2258 210.544C94.5458 210.299 94.7058 209.989 94.7058 209.616C94.7058 209.232 94.5351 208.949 94.1938 208.768C93.8524 208.576 93.3244 208.389 92.6098 208.208C91.9591 208.037 91.4258 207.867 91.0098 207.696C90.6044 207.515 90.2524 207.253 89.9538 206.912C89.6658 206.56 89.5218 206.101 89.5218 205.536C89.5218 205.088 89.6551 204.677 89.9218 204.304C90.1884 203.931 90.5671 203.637 91.0578 203.424C91.5484 203.2 92.1084 203.088 92.7378 203.088C93.7084 203.088 94.4924 203.333 95.0898 203.824C95.6871 204.315 96.0071 204.987 96.0498 205.84H94.5938C94.5618 205.381 94.3751 205.013 94.0338 204.736C93.7031 204.459 93.2551 204.32 92.6898 204.32C92.1671 204.32 91.7511 204.432 91.4418 204.656C91.1324 204.88 90.9778 205.173 90.9778 205.536C90.9778 205.824 91.0684 206.064 91.2498 206.256C91.4418 206.437 91.6764 206.587 91.9538 206.704C92.2418 206.811 92.6364 206.933 93.1378 207.072C93.7671 207.243 94.2791 207.413 94.6738 207.584C95.0684 207.744 95.4044 207.989 95.6818 208.32C95.9698 208.651 96.1191 209.083 96.1298 209.616C96.1298 210.096 95.9964 210.528 95.7298 210.912C95.4631 211.296 95.0844 211.6 94.5938 211.824C94.1138 212.037 93.5591 212.144 92.9298 212.144Z" fill="white"/>
<path d="M151.552 278.768H148.144V282.224H146.784V278.768H143.392V277.536H146.784V274.064H148.144V277.536H151.552V278.768ZM165.012 281.52H160.148L159.252 284H157.715L161.748 272.912H163.428L167.444 284H165.908L165.012 281.52ZM164.596 280.336L162.58 274.704L160.564 280.336H164.596ZM168.657 279.584C168.657 278.688 168.838 277.904 169.201 277.232C169.563 276.549 170.059 276.021 170.689 275.648C171.329 275.275 172.043 275.088 172.833 275.088C173.515 275.088 174.15 275.248 174.737 275.568C175.323 275.877 175.771 276.288 176.081 276.8V272.16H177.553V284H176.081V282.352C175.793 282.875 175.366 283.307 174.801 283.648C174.235 283.979 173.574 284.144 172.817 284.144C172.038 284.144 171.329 283.952 170.689 283.568C170.059 283.184 169.563 282.645 169.201 281.952C168.838 281.259 168.657 280.469 168.657 279.584ZM176.081 279.6C176.081 278.939 175.947 278.363 175.681 277.872C175.414 277.381 175.051 277.008 174.593 276.752C174.145 276.485 173.649 276.352 173.105 276.352C172.561 276.352 172.065 276.48 171.617 276.736C171.169 276.992 170.811 277.365 170.545 277.856C170.278 278.347 170.145 278.923 170.145 279.584C170.145 280.256 170.278 280.843 170.545 281.344C170.811 281.835 171.169 282.213 171.617 282.48C172.065 282.736 172.561 282.864 173.105 282.864C173.649 282.864 174.145 282.736 174.593 282.48C175.051 282.213 175.414 281.835 175.681 281.344C175.947 280.843 176.081 280.261 176.081 279.6ZM179.469 279.584C179.469 278.688 179.651 277.904 180.013 277.232C180.376 276.549 180.872 276.021 181.501 275.648C182.141 275.275 182.856 275.088 183.645 275.088C184.328 275.088 184.963 275.248 185.549 275.568C186.136 275.877 186.584 276.288 186.893 276.8V272.16H188.365V284H186.893V282.352C186.605 282.875 186.179 283.307 185.613 283.648C185.048 283.979 184.387 284.144 183.629 284.144C182.851 284.144 182.141 283.952 181.501 283.568C180.872 283.184 180.376 282.645 180.013 281.952C179.651 281.259 179.469 280.469 179.469 279.584ZM186.893 279.6C186.893 278.939 186.76 278.363 186.493 277.872C186.227 277.381 185.864 277.008 185.405 276.752C184.957 276.485 184.461 276.352 183.917 276.352C183.373 276.352 182.877 276.48 182.429 276.736C181.981 276.992 181.624 277.365 181.357 277.856C181.091 278.347 180.957 278.923 180.957 279.584C180.957 280.256 181.091 280.843 181.357 281.344C181.624 281.835 181.981 282.213 182.429 282.48C182.877 282.736 183.373 282.864 183.917 282.864C184.461 282.864 184.957 282.736 185.405 282.48C185.864 282.213 186.227 281.835 186.493 281.344C186.76 280.843 186.893 280.261 186.893 279.6ZM203.859 284H202.403L196.547 275.12V284H195.091V272.832H196.547L202.403 281.696V272.832H203.859V284ZM214.341 279.28C214.341 279.557 214.325 279.851 214.293 280.16H207.285C207.339 281.024 207.632 281.701 208.165 282.192C208.709 282.672 209.365 282.912 210.133 282.912C210.763 282.912 211.285 282.768 211.701 282.48C212.128 282.181 212.427 281.787 212.597 281.296H214.165C213.931 282.139 213.461 282.827 212.757 283.36C212.053 283.883 211.179 284.144 210.133 284.144C209.301 284.144 208.555 283.957 207.893 283.584C207.243 283.211 206.731 282.683 206.357 282C205.984 281.307 205.797 280.507 205.797 279.6C205.797 278.693 205.979 277.899 206.341 277.216C206.704 276.533 207.211 276.011 207.861 275.648C208.523 275.275 209.28 275.088 210.133 275.088C210.965 275.088 211.701 275.269 212.341 275.632C212.981 275.995 213.472 276.496 213.813 277.136C214.165 277.765 214.341 278.48 214.341 279.28ZM212.837 278.976C212.837 278.421 212.715 277.947 212.469 277.552C212.224 277.147 211.888 276.843 211.461 276.64C211.045 276.427 210.581 276.32 210.069 276.32C209.333 276.32 208.704 276.555 208.181 277.024C207.669 277.493 207.376 278.144 207.301 278.976H212.837ZM227.943 275.232L225.207 284H223.703L221.591 277.04L219.479 284H217.975L215.223 275.232H216.711L218.727 282.592L220.903 275.232H222.391L224.519 282.608L226.503 275.232H227.943ZM235.11 282.816H239.014V284H233.654V272.848H235.11V282.816ZM241.312 273.808C241.035 273.808 240.8 273.712 240.608 273.52C240.416 273.328 240.32 273.093 240.32 272.816C240.32 272.539 240.416 272.304 240.608 272.112C240.8 271.92 241.035 271.824 241.312 271.824C241.579 271.824 241.803 271.92 241.984 272.112C242.176 272.304 242.272 272.539 242.272 272.816C242.272 273.093 242.176 273.328 241.984 273.52C241.803 273.712 241.579 273.808 241.312 273.808ZM242.016 275.232V284H240.56V275.232H242.016ZM247.602 284.144C246.93 284.144 246.327 284.032 245.794 283.808C245.26 283.573 244.839 283.253 244.53 282.848C244.22 282.432 244.05 281.957 244.018 281.424H245.522C245.564 281.861 245.767 282.219 246.13 282.496C246.503 282.773 246.988 282.912 247.586 282.912C248.14 282.912 248.578 282.789 248.898 282.544C249.218 282.299 249.378 281.989 249.378 281.616C249.378 281.232 249.207 280.949 248.866 280.768C248.524 280.576 247.996 280.389 247.282 280.208C246.631 280.037 246.098 279.867 245.682 279.696C245.276 279.515 244.924 279.253 244.626 278.912C244.338 278.56 244.194 278.101 244.194 277.536C244.194 277.088 244.327 276.677 244.594 276.304C244.86 275.931 245.239 275.637 245.73 275.424C246.22 275.2 246.78 275.088 247.41 275.088C248.38 275.088 249.164 275.333 249.762 275.824C250.359 276.315 250.679 276.987 250.722 277.84H249.266C249.234 277.381 249.047 277.013 248.706 276.736C248.375 276.459 247.927 276.32 247.362 276.32C246.839 276.32 246.423 276.432 246.114 276.656C245.804 276.88 245.65 277.173 245.65 277.536C245.65 277.824 245.74 278.064 245.922 278.256C246.114 278.437 246.348 278.587 246.626 278.704C246.914 278.811 247.308 278.933 247.81 279.072C248.439 279.243 248.951 279.413 249.346 279.584C249.74 279.744 250.076 279.989 250.354 280.32C250.642 280.651 250.791 281.083 250.802 281.616C250.802 282.096 250.668 282.528 250.402 282.912C250.135 283.296 249.756 283.6 249.266 283.824C248.786 284.037 248.231 284.144 247.602 284.144ZM254.633 276.432V281.6C254.633 282.027 254.724 282.331 254.905 282.512C255.086 282.683 255.401 282.768 255.849 282.768H256.921V284H255.609C254.798 284 254.19 283.813 253.785 283.44C253.38 283.067 253.177 282.453 253.177 281.6V276.432H252.041V275.232H253.177V273.024H254.633V275.232H256.921V276.432H254.633Z" fill="#7F8190"/>
<defs>
<filter id="filter0_d_1383_2" x="0" y="0" width="400" height="334" filterUnits="userSpaceOnUse" color-interpolation-filters="sRGB">
<feFlood flood-opacity="0" result="BackgroundImageFix"/>
<feColorMatrix in="SourceAlpha" type="matrix" values="0 0 0 0 0 0 0 0 0 0 0 0 0 0 0 0 0 0 127 0" result="hardAlpha"/>
<feOffset/>
<feGaussianBlur stdDeviation="4"/>
<feComposite in2="hardAlpha" operator="out"/>
<feColorMatrix type="matrix" values="0 0 0 0 0.0823529 0 0 0 0 0.0862745 0 0 0 0 0.117647 0 0 0 0.5 0"/>
<feBlend mode="normal" in2="BackgroundImageFix" result="effect1_dropShadow_1383_2"/>
<feBlend mode="normal" in="SourceGraphic" in2="effect1_dropShadow_1383_2" result="shape"/>
</filter>
</defs>
</svg>
